<mxfile host="app.diagrams.net" modified="2024-03-25T06:28:01.253Z" agent="Mozilla/5.0 (Macintosh; Intel Mac OS X 10_15_7) AppleWebKit/537.36 (KHTML, like Gecko) Chrome/123.0.0.0 Safari/537.36" etag="d77ZO4PLXPgBSEkT5pP-" version="24.0.8" type="github">
  <diagram name="第 1 页" id="cT_dWv44AKkI8dZ2TpmG">
    <mxGraphModel dx="1797" dy="1819" grid="1" gridSize="10" guides="1" tooltips="1" connect="1" arrows="1" fold="1" page="1" pageScale="1" pageWidth="827" pageHeight="1169" math="0" shadow="0">
      <root>
        <mxCell id="0" />
        <mxCell id="1" parent="0" />
        <mxCell id="MJD19fluLZeddZfSbF4P-1" value="path2func" style="rounded=1;whiteSpace=wrap;html=1;fillColor=#dae8fc;strokeColor=#6c8ebf;" vertex="1" parent="1">
          <mxGeometry x="-40" y="-270" width="120" height="60" as="geometry" />
        </mxCell>
        <mxCell id="MJD19fluLZeddZfSbF4P-2" value="generate_path2func" style="rounded=1;whiteSpace=wrap;html=1;" vertex="1" parent="1">
          <mxGeometry x="140" y="-270" width="120" height="60" as="geometry" />
        </mxCell>
        <mxCell id="MJD19fluLZeddZfSbF4P-3" value="func2path" style="rounded=1;whiteSpace=wrap;html=1;fillColor=#dae8fc;strokeColor=#6c8ebf;" vertex="1" parent="1">
          <mxGeometry x="-40" y="-180" width="120" height="60" as="geometry" />
        </mxCell>
        <mxCell id="MJD19fluLZeddZfSbF4P-4" value="config_value" style="rounded=1;whiteSpace=wrap;html=1;fillColor=#dae8fc;strokeColor=#6c8ebf;" vertex="1" parent="1">
          <mxGeometry x="-40" y="-100" width="120" height="60" as="geometry" />
        </mxCell>
        <mxCell id="MJD19fluLZeddZfSbF4P-5" value="config_code" style="rounded=1;whiteSpace=wrap;html=1;fillColor=#dae8fc;strokeColor=#6c8ebf;" vertex="1" parent="1">
          <mxGeometry x="-40" y="-10" width="120" height="60" as="geometry" />
        </mxCell>
        <mxCell id="MJD19fluLZeddZfSbF4P-6" value="config_file" style="rounded=1;whiteSpace=wrap;html=1;fillColor=#dae8fc;strokeColor=#6c8ebf;" vertex="1" parent="1">
          <mxGeometry x="-40" y="80" width="120" height="60" as="geometry" />
        </mxCell>
        <mxCell id="MJD19fluLZeddZfSbF4P-8" value="generate_func2path" style="rounded=1;whiteSpace=wrap;html=1;" vertex="1" parent="1">
          <mxGeometry x="140" y="-180" width="120" height="60" as="geometry" />
        </mxCell>
      </root>
    </mxGraphModel>
  </diagram>
</mxfile>
